<svg width="17" height="19" viewBox="0 0 17 19" fill="none" xmlns="http://www.w3.org/2000/svg">
<path d="M11.4773 1.86C9.84746 1.48128 8.15248 1.48128 6.52264 1.86C5.5813 1.28267 4.86264 1.01734 4.33997 0.905337C4.11689 0.854991 3.88863 0.83127 3.65997 0.834671C3.55592 0.83749 3.45237 0.849989 3.35064 0.872004L3.3373 0.87467L3.33197 0.877337H3.32797L3.51064 1.51867L3.32797 0.878671C3.2343 0.905142 3.14756 0.951804 3.07385 1.01538C3.00014 1.07896 2.94124 1.1579 2.9013 1.24667C2.50793 2.12761 2.43299 3.11789 2.6893 4.048C2.02548 4.85248 1.66373 5.86368 1.66664 6.90667C1.66664 8.97734 2.2773 10.3693 3.31864 11.264C4.04797 11.8907 4.9333 12.224 5.8213 12.4147C5.68156 12.8251 5.62889 13.2601 5.66664 13.692V14.4893C5.12397 14.6027 4.74797 14.5667 4.47997 14.4787C4.1453 14.368 3.88797 14.1453 3.6413 13.8253C3.51236 13.6528 3.3922 13.4739 3.2813 13.2893L3.2053 13.1653C3.10934 13.0058 3.00976 12.8484 2.90664 12.6933C2.6533 12.3187 2.2773 11.8493 1.6693 11.6893L1.02397 11.52L0.685303 12.8107L1.33064 12.98C1.4373 13.0067 1.57597 13.1067 1.80397 13.4413C1.89173 13.5734 1.9762 13.7077 2.0573 13.844L2.14797 13.9907C2.2733 14.1933 2.4173 14.4173 2.58397 14.636C2.9213 15.076 3.3813 15.52 4.06397 15.7453C4.53064 15.9 5.0613 15.9373 5.66664 15.844V18.3333C5.66664 18.5101 5.73687 18.6797 5.8619 18.8047C5.98692 18.9298 6.15649 19 6.3333 19H11.6666C11.8434 19 12.013 18.9298 12.138 18.8047C12.2631 18.6797 12.3333 18.5101 12.3333 18.3333V13.5827C12.3333 13.1627 12.3146 12.7773 12.196 12.4187C13.08 12.232 13.9586 11.8987 14.684 11.272C15.724 10.3707 16.3333 8.96534 16.3333 6.88267V6.88134C16.3299 5.84688 15.9681 4.84559 15.3093 4.048C15.5653 3.11831 15.4904 2.12856 15.0973 1.248C15.0577 1.15913 14.999 1.08001 14.9256 1.01621C14.8521 0.952402 14.7655 0.905458 14.672 0.878671L14.4893 1.51867C14.672 0.878671 14.6706 0.878671 14.6693 0.878671L14.6666 0.877337L14.6613 0.87467L14.6493 0.872004C14.6164 0.863441 14.583 0.856764 14.5493 0.852004C14.4795 0.841813 14.4092 0.836024 14.3386 0.834671C14.11 0.831295 13.8817 0.855016 13.6586 0.905337C13.1373 1.01734 12.4186 1.28267 11.4773 1.86Z" fill="white"/>
</svg>
